<svg width="922" height="1024" viewBox="0 0 922 1024" fill="none" xmlns="http://www.w3.org/2000/svg">
<g clip-path="url(#clip0)">
<path fill-rule="evenodd" clip-rule="evenodd" d="M469.707 74.6232L469.749 74.6683C472.008 76.9109 473.801 79.5734 475.024 82.5036C476.247 85.4339 476.876 88.5745 476.876 91.7462C476.876 94.9179 476.247 98.0586 475.024 100.989C473.801 103.919 472.008 106.582 469.749 108.824L44.763 530.661C42.5036 532.903 39.8212 534.683 36.8691 535.896C33.917 537.11 30.7529 537.735 27.5575 537.735C24.3622 537.735 21.1981 537.11 18.2459 535.896C15.2938 534.683 12.6115 532.903 10.3521 530.661L10.3067 530.619C8.04711 528.376 6.25472 525.714 5.03185 522.783C3.80897 519.853 3.17957 516.713 3.17957 513.541C3.17957 510.369 3.80897 507.229 5.03185 504.298C6.25472 501.368 8.04711 498.706 10.3067 496.463L435.293 74.6264C437.552 72.3829 440.234 70.6032 443.186 69.3888C446.139 68.1744 449.303 67.5492 452.499 67.5489C455.695 67.5486 458.859 68.1732 461.812 69.387C464.764 70.6009 467.447 72.3801 469.707 74.6232V74.6232Z" fill="#DC3545"/>
<path d="M467.16 144.906C506.578 144.906 538.532 113.188 538.532 74.0628C538.532 34.9375 506.578 3.22009 467.16 3.22009C427.743 3.22009 395.788 34.9375 395.788 74.0628C395.788 113.188 427.743 144.906 467.16 144.906Z" fill="#DC3545"/>
<path fill-rule="evenodd" clip-rule="evenodd" d="M9.63856 499.944C13.5931 496.019 18.9564 493.814 24.5488 493.814C30.1411 493.814 35.5044 496.019 39.4589 499.944L261.973 720.812C263.961 722.749 265.542 725.058 266.626 727.605C267.709 730.152 268.274 732.887 268.287 735.652C268.3 738.417 267.76 741.157 266.7 743.713C265.64 746.27 264.08 748.593 262.111 750.548C260.141 752.503 257.801 754.052 255.225 755.104C252.649 756.156 249.889 756.691 247.103 756.679C244.318 756.666 241.562 756.106 238.996 755.03C236.43 753.954 234.104 752.385 232.153 750.412L9.63856 529.547C7.68015 527.603 6.12663 525.295 5.06673 522.756C4.00683 520.216 3.4613 517.494 3.4613 514.745C3.4613 511.996 4.00683 509.274 5.06673 506.735C6.12663 504.195 7.68015 501.888 9.63856 499.944V499.944Z" fill="#DC3545"/>
<path fill-rule="evenodd" clip-rule="evenodd" d="M248.218 270.532C253.81 270.532 259.174 272.738 263.129 276.663C267.083 280.588 269.305 285.912 269.305 291.463V732.662C269.305 738.213 267.083 743.537 263.129 747.463C259.174 751.388 253.81 753.593 248.218 753.593C242.625 753.593 237.262 751.388 233.307 747.463C229.352 743.537 227.131 738.213 227.131 732.662V291.463C227.131 285.912 229.352 280.588 233.307 276.663C237.262 272.738 242.625 270.532 248.218 270.532V270.532Z" fill="#DC3545"/>
<path fill-rule="evenodd" clip-rule="evenodd" d="M390.961 270.532C396.554 270.532 401.917 272.738 405.872 276.663C409.826 280.588 412.048 285.912 412.048 291.463V735.84C412.048 741.392 409.826 746.715 405.872 750.641C401.917 754.566 396.554 756.771 390.961 756.771C385.368 756.771 380.005 754.566 376.05 750.641C372.096 746.715 369.874 741.392 369.874 735.84V291.463C369.874 285.912 372.096 280.588 376.05 276.663C380.005 272.738 385.368 270.532 390.961 270.532V270.532Z" fill="#DC3545"/>
<path fill-rule="evenodd" clip-rule="evenodd" d="M533.704 270.532C539.297 270.532 544.661 272.738 548.615 276.663C552.57 280.588 554.792 285.912 554.792 291.463V735.84C554.792 741.392 552.57 746.715 548.615 750.641C544.661 754.566 539.297 756.771 533.704 756.771C528.112 756.771 522.748 754.566 518.794 750.641C514.839 746.715 512.617 741.392 512.617 735.84V291.463C512.617 285.912 514.839 280.588 518.794 276.663C522.748 272.738 528.112 270.532 533.704 270.532V270.532Z" fill="#DC3545"/>
<path fill-rule="evenodd" clip-rule="evenodd" d="M454.871 952.568L454.832 952.513C452.572 950.27 450.779 947.607 449.555 944.677C448.332 941.746 447.702 938.604 447.702 935.432C447.702 932.26 448.332 929.118 449.555 926.187C450.779 923.256 452.572 920.594 454.832 918.351L879.721 496.357C884.283 491.834 890.467 489.294 896.915 489.294C903.363 489.294 909.547 491.834 914.109 496.357L914.158 496.405C918.72 500.937 921.282 507.081 921.282 513.488C921.282 519.894 918.72 526.038 914.158 530.571L489.269 952.568C487.011 954.811 484.33 956.591 481.379 957.805C478.428 959.019 475.265 959.644 472.07 959.644C468.876 959.644 465.712 959.019 462.761 957.805C459.81 956.591 457.129 954.811 454.871 952.568V952.568Z" fill="#DC3545"/>
<path fill-rule="evenodd" clip-rule="evenodd" d="M457.428 1024C443.305 1024.01 429.497 1019.85 417.751 1012.07C406.006 1004.29 396.85 993.219 391.441 980.27C386.032 967.32 384.614 953.069 387.366 939.32C390.118 925.57 396.916 912.939 406.9 903.025C416.884 893.11 429.607 886.357 443.458 883.62C457.309 880.884 471.667 882.285 484.716 887.649C497.764 893.012 508.917 902.096 516.764 913.751C524.611 925.407 528.799 939.11 528.799 953.128C528.803 962.434 526.96 971.649 523.375 980.248C519.79 988.846 514.533 996.659 507.905 1003.24C501.278 1009.82 493.408 1015.04 484.747 1018.6C476.086 1022.17 466.803 1024 457.428 1024V1024Z" fill="#DC3545"/>
<path fill-rule="evenodd" clip-rule="evenodd" d="M914.855 527.073C910.901 530.995 905.539 533.198 899.949 533.198C894.36 533.198 888.998 530.995 885.044 527.073L662.556 306.121C658.599 302.192 656.375 296.864 656.375 291.309C656.375 285.753 658.599 280.425 662.556 276.496V276.496C666.51 272.573 671.872 270.369 677.463 270.369C683.054 270.369 688.416 272.573 692.37 276.496L914.855 497.464C916.814 499.408 918.369 501.716 919.429 504.256C920.489 506.796 921.035 509.519 921.035 512.269C921.035 515.018 920.489 517.741 919.429 520.281C918.369 522.822 916.814 525.129 914.855 527.073V527.073Z" fill="#DC3545"/>
<path fill-rule="evenodd" clip-rule="evenodd" d="M676.315 756.581C670.722 756.581 665.358 754.376 661.404 750.451C657.449 746.526 655.228 741.202 655.228 735.651V294.252C655.228 288.701 657.449 283.377 661.404 279.452C665.358 275.526 670.722 273.321 676.315 273.321C681.907 273.321 687.271 275.526 691.225 279.452C695.18 283.377 697.402 288.701 697.402 294.252V735.654C697.401 741.205 695.179 746.528 691.224 750.452C687.27 754.377 681.907 756.581 676.315 756.581V756.581Z" fill="#DC3545"/>
</g>
<defs>
<clipPath id="clip0">
<rect width="921.343" height="1024" fill="white"/>
</clipPath>
</defs>
</svg>
